# 3ds Max Wavefront OBJ Exporter v0.97b - (c)2007 guruware
# File Created: 30.09.2017 10:25:09

mtllib puertanivel.mtl

#
# object Box006
#

v  -0.5000 0.0000 7.5000
v  -0.5000 0.0000 -7.5000
v  0.5000 0.0000 -7.5000
v  0.5000 0.0000 7.5000
v  -0.5000 22.5000 7.5000
v  0.5000 22.5000 7.5000
v  0.5000 22.5000 -0.0000
v  0.5000 22.5000 -7.5000
v  -0.5000 22.5000 -7.5000
v  0.5000 10.2000 7.5000
v  0.5000 12.3000 7.5000
v  0.7500 12.3000 -0.0000
v  0.7500 12.3000 7.5000
v  0.7500 10.2000 7.5000
v  0.7500 12.3000 -7.5000
v  0.7500 10.2000 -7.5000
v  0.5000 10.2000 -7.5000
v  0.5000 12.3000 -7.5000
v  0.2500 20.0000 -5.0000
v  0.2500 20.0000 -2.5000
v  0.2500 14.8000 -2.5000
v  0.2500 14.8000 -5.0000
v  0.5000 3.0000 4.5000
v  0.5000 3.0000 -4.5000
v  0.5000 7.2000 -4.5000
v  0.5000 7.2000 4.5000
v  0.5000 2.0000 -5.5000
v  0.5000 2.0000 5.5000
v  0.5000 8.2000 -5.5000
v  0.5000 8.2000 5.5000
v  0.2500 20.0000 5.0000
v  0.2500 14.8000 5.0000
v  0.2500 14.8000 2.5000
v  0.2500 20.0000 2.5000
v  0.5000 21.0000 -6.0000
v  0.5000 13.8000 -6.0000
v  0.5000 21.0000 -1.5000
v  0.5000 12.3000 -0.0000
v  0.5000 13.8000 -1.5000
v  0.5000 21.0000 6.0000
v  0.5000 21.0000 1.5000
v  0.5000 13.8000 6.0000
v  0.5000 13.8000 1.5000
v  0.0000 2.0000 -5.5000
v  0.0000 2.0000 5.5000
v  0.0000 8.2000 -5.5000
v  0.0000 8.2000 5.5000
v  0.0000 21.0000 -6.0000
v  0.0000 13.8000 -6.0000
v  0.0000 21.0000 -1.5000
v  0.0000 13.8000 -1.5000
v  0.0000 21.0000 6.0000
v  0.0000 21.0000 1.5000
v  0.0000 13.8000 6.0000
v  0.0000 13.8000 1.5000
# 55 vertices

vn 0.0000 -1.0000 -0.0000
vn 0.0000 1.0000 -0.0000
vn 0.0000 0.0000 1.0000
vn 1.0000 0.0000 -0.0000
vn 0.0000 0.0000 -1.0000
vn -1.0000 0.0000 -0.0000
vn 0.8944 -0.4472 -0.0000
vn 0.8944 0.0000 -0.4472
vn 0.8944 0.4472 -0.0000
vn 0.8944 0.0000 0.4472
vn 0.9701 0.0000 -0.2425
vn 0.9701 0.2425 -0.0000
vn 0.9701 0.0000 0.2425
vn 0.9701 -0.2425 -0.0000
# 14 vertex normals

vt 1.0000 0.0000 0.0000
vt 0.0000 0.0000 0.0000
vt 1.0000 1.0000 0.0000
vt 0.0000 1.0000 0.0000
vt 0.0000 0.0000 0.0000
vt 1.0000 0.0000 0.0000
vt 0.0000 1.0000 0.0000
vt 1.0000 1.0000 0.0000
vt 0.0000 0.0000 0.0000
vt 1.0000 0.0000 0.0000
vt 0.0000 1.0000 0.0000
vt 1.0000 1.0000 0.0000
vt 0.0000 1.0000 0.0000
vt 1.0000 1.0000 0.0000
vt 0.0000 0.0000 0.0000
vt 1.0000 0.0000 0.0000
vt 0.0000 1.0000 0.0000
vt 1.0000 1.0000 0.0000
vt 0.0000 0.0000 0.0000
vt 1.0000 0.0000 0.0000
vt 0.0000 1.0000 0.0000
vt 1.0000 1.0000 0.0000
vt 1.0000 0.4533 0.0000
vt 1.0000 0.5467 0.0000
vt 0.0000 0.4533 0.0000
vt 0.0000 0.5467 0.0000
vt 1.0000 0.4533 0.0000
vt 1.0000 0.5467 0.0000
vt 0.0000 0.4533 0.0000
vt 0.0000 0.5467 0.0000
vt 0.0000 0.0000 0.0000
vt 1.0000 0.0000 0.0000
vt 1.0000 0.4533 0.0000
vt 0.0000 0.4533 0.0000
vt 1.0000 0.5000 0.0000
vt 0.5000 1.0000 0.0000
vt 0.5000 0.5467 0.0000
vt 1.0000 0.5467 0.0000
vt 1.0000 1.0000 0.0000
vt 0.5000 1.0000 0.0000
vt 0.5000 0.5467 0.0000
vt 0.5000 1.0000 0.0000
vt 0.0000 1.0000 0.0000
vt 0.0000 0.5467 0.0000
vt 0.5000 0.5467 0.0000
vt 0.0000 0.5467 0.0000
vt 0.0000 0.4533 0.0000
vt 1.0000 0.4533 0.0000
vt 1.0000 0.5467 0.0000
vt 0.5000 0.5467 0.0000
vt 0.0000 0.0000 0.0000
vt 1.0000 0.0000 0.0000
vt 1.0000 0.4533 0.0000
vt 0.0000 0.4533 0.0000
vt 0.0000 0.0000 0.0000
vt 1.0000 0.0000 0.0000
vt 1.0000 0.4533 0.0000
vt 0.0000 0.4533 0.0000
vt 1.0000 0.5467 0.0000
vt 1.0000 1.0000 0.0000
vt 0.5000 1.0000 0.0000
vt 0.5000 0.5467 0.0000
vt 0.5000 1.0000 0.0000
vt 0.0000 1.0000 0.0000
vt 0.0000 0.5467 0.0000
vt 0.5000 0.5467 0.0000
vt 1.0000 0.5467 0.0000
vt 1.0000 1.0000 0.0000
vt 0.5000 1.0000 0.0000
vt 0.5000 0.5467 0.0000
vt 0.5000 1.0000 0.0000
vt 0.0000 1.0000 0.0000
vt 0.0000 0.5467 0.0000
vt 0.5000 0.5467 0.0000
# 74 texture coords

g Box006
usemtl wire_000000000
s 2
f 1/1/1 2/3/1 3/4/1 4/2/1 
s 4
f 5/5/2 6/6/2 7/35/2 8/8/2 
f 5/5/2 8/8/2 9/7/2 
s 8
f 1/9/3 4/10/3 10/23/3 11/24/3 
f 1/9/3 11/24/3 6/12/3 5/11/3 
s 16
f 12/50/4 13/46/4 14/47/4 15/49/4 
f 16/48/4 15/49/4 14/47/4 
s 32
f 3/15/5 2/16/5 9/18/5 17/29/5 
f 9/18/5 8/17/5 18/30/5 17/29/5 
s 64
f 2/19/6 1/20/6 5/22/6 9/21/6 
s 16
f 19/68/4 20/69/4 21/70/4 22/67/4 
f 23/55/4 24/56/4 25/57/4 26/58/4 
s off
f 4/2/4 3/4/4 27/32/4 28/31/4 
f 3/15/4 17/29/4 29/33/4 27/32/4 
f 17/27/4 10/25/4 30/34/4 29/33/4 
f 10/23/4 4/10/4 28/31/4 30/34/4 
s 16
f 31/72/4 32/73/4 33/74/4 34/71/4 
s off
f 18/28/4 8/14/4 35/39/4 36/38/4 
f 8/14/4 7/36/4 37/40/4 35/39/4 
f 7/36/4 38/37/4 39/41/4 37/40/4 
f 38/37/4 18/28/4 36/38/4 39/41/4 
f 7/36/4 6/13/4 40/43/4 41/42/4 
f 6/13/4 11/26/4 42/44/4 40/43/4 
f 11/26/4 38/37/4 43/45/4 42/44/4 
f 38/37/4 7/36/4 41/42/4 43/45/4 
f 11/24/3 10/23/3 14/47/3 13/46/3 
f 10/25/1 17/27/1 16/48/1 14/47/1 
f 17/29/5 18/30/5 15/49/5 16/48/5 
f 18/28/2 38/37/2 12/50/2 15/49/2 
f 38/37/2 11/26/2 13/46/2 12/50/2 
f 28/31/2 27/32/2 44/52/2 45/51/2 
f 27/32/3 29/33/3 46/53/3 44/52/3 
f 29/33/1 30/34/1 47/54/1 46/53/1 
f 30/34/5 28/31/5 45/51/5 47/54/5 
f 45/51/7 44/52/7 24/56/7 23/55/7 
f 44/52/8 46/53/8 25/57/8 24/56/8 
f 46/53/9 47/54/9 26/58/9 25/57/9 
f 47/54/10 45/51/10 23/55/10 26/58/10 
f 36/38/3 35/39/3 48/60/3 49/59/3 
f 35/39/1 37/40/1 50/61/1 48/60/1 
f 37/40/5 39/41/5 51/62/5 50/61/5 
f 39/41/2 36/38/2 49/59/2 51/62/2 
f 41/42/1 40/43/1 52/64/1 53/63/1 
f 40/43/5 42/44/5 54/65/5 52/64/5 
f 42/44/2 43/45/2 55/66/2 54/65/2 
f 43/45/3 41/42/3 53/63/3 55/66/3 
f 49/59/11 48/60/11 19/68/11 22/67/11 
f 48/60/12 50/61/12 20/69/12 19/68/12 
f 50/61/13 51/62/13 21/70/13 20/69/13 
f 51/62/14 49/59/14 22/67/14 21/70/14 
f 53/63/12 52/64/12 31/72/12 34/71/12 
f 52/64/13 54/65/13 32/73/13 31/72/13 
f 54/65/14 55/66/14 33/74/14 32/73/14 
f 55/66/11 53/63/11 34/71/11 33/74/11 
# 52 polygons - 2 triangles

