# 3ds Max Wavefront OBJ Exporter v0.97b - (c)2007 guruware
# File Created: 30.09.2017 10:45:52

mtllib techo.mtl

#
# object Object002
#

v  -90.0000 0.0000 -60.0000
v  -50.0000 0.0000 -20.0000
v  -50.0000 0.0000 20.0000
v  -90.0000 0.0000 -55.3693
v  -90.0000 0.0000 60.0000
v  -90.0000 0.0000 35.0000
v  -90.0000 0.0000 20.0000
v  -90.0000 0.0000 -10.3693
v  -90.0000 0.0000 -37.2500
v  -90.0000 0.0000 -50.0000
v  -80.0000 0.0000 70.0000
v  -40.0000 0.0000 30.0000
v  40.0000 0.0000 30.0000
v  -65.0000 0.0000 70.0000
v  80.0000 0.0000 70.0000
v  79.0000 0.0000 70.0000
v  49.0000 0.0000 70.0000
v  41.0000 0.0000 70.0000
v  11.0000 0.0000 70.0000
v  3.0000 0.0000 70.0000
v  -27.0000 0.0000 70.0000
v  -35.0000 0.0000 70.0000
v  90.0000 0.0000 60.0000
v  50.0000 0.0000 20.0000
v  50.0000 0.0000 -20.0000
v  90.0000 0.0000 52.5000
v  90.0000 0.0000 -60.0000
v  90.0000 0.0000 -53.5000
v  90.0000 0.0000 -23.5000
v  90.0000 0.0000 -15.5000
v  90.0000 0.0000 14.5000
v  90.0000 0.0000 22.5000
v  80.0000 0.0000 -70.0000
v  40.0000 0.0000 -30.0000
v  -40.0000 0.0000 -30.0000
v  79.0000 0.0000 -70.0000
v  -80.0000 0.0000 -70.0000
v  -65.0000 0.0000 -70.0000
v  -35.0000 0.0000 -70.0000
v  -27.0000 0.0000 -70.0000
v  3.0000 0.0000 -70.0000
v  11.0000 0.0000 -70.0000
v  41.0000 0.0000 -70.0000
v  49.0000 0.0000 -70.0000
v  130.0000 0.0000 -23.5000
v  130.0000 0.0000 -53.5000
v  49.0000 0.0000 -110.0000
v  79.0000 0.0000 -110.0000
v  11.0000 0.0000 -110.0000
v  41.0000 0.0000 -110.0000
v  -27.0000 0.0000 -110.0000
v  3.0000 0.0000 -110.0000
v  -65.0000 0.0000 -110.0000
v  -35.0000 0.0000 -110.0000
v  -115.0000 0.0000 -55.3693
v  -92.0000 0.0000 -55.3693
v  -92.0000 0.0000 -50.0000
v  -92.0000 0.0000 -37.2500
v  -92.0000 0.0000 -10.3693
v  -115.0000 0.0000 -10.3693
v  -65.0000 0.0000 110.0000
v  -35.0000 0.0000 110.0000
v  -27.0000 0.0000 110.0000
v  3.0000 0.0000 110.0000
v  11.0000 0.0000 110.0000
v  41.0000 0.0000 110.0000
v  49.0000 0.0000 110.0000
v  79.0000 0.0000 110.0000
v  130.0000 0.0000 52.5000
v  130.0000 0.0000 22.5000
v  130.0000 0.0000 14.5000
v  130.0000 0.0000 -15.5000
v  -42.3438 0.0000 -29.8438
v  -82.3438 0.0000 -69.8438
v  -49.8438 0.0000 22.3438
v  -89.8438 0.0000 62.3438
v  42.3438 0.0000 29.8438
v  82.3438 0.0000 69.8438
v  49.8438 0.0000 -22.3438
v  89.8438 0.0000 -62.3438
v  -44.3750 0.0000 -29.3750
v  -84.3750 0.0000 -69.3750
v  -46.0938 0.0000 -28.5938
v  -86.0938 0.0000 -68.5938
v  -47.5000 0.0000 -27.5000
v  -87.5000 0.0000 -67.5000
v  -48.5938 0.0000 -26.0938
v  -88.5938 0.0000 -66.0938
v  -49.3750 0.0000 -24.3750
v  -89.3750 0.0000 -64.3750
v  -49.8438 0.0000 -22.3438
v  -89.8438 0.0000 -62.3438
v  -49.3750 0.0000 24.3750
v  -89.3750 0.0000 64.3750
v  -48.5938 0.0000 26.0938
v  -88.5938 0.0000 66.0938
v  -47.5000 0.0000 27.5000
v  -87.5000 0.0000 67.5000
v  -46.0938 0.0000 28.5938
v  -86.0938 0.0000 68.5938
v  -44.3750 0.0000 29.3750
v  -84.3750 0.0000 69.3750
v  -42.3438 0.0000 29.8438
v  -82.3438 0.0000 69.8438
v  44.3750 0.0000 29.3750
v  84.3750 0.0000 69.3750
v  46.0938 0.0000 28.5938
v  86.0938 0.0000 68.5938
v  47.5000 0.0000 27.5000
v  87.5000 0.0000 67.5000
v  48.5938 0.0000 26.0938
v  88.5938 0.0000 66.0938
v  49.3750 0.0000 24.3750
v  89.3750 0.0000 64.3750
v  49.8438 0.0000 22.3438
v  89.8438 0.0000 62.3438
v  49.3750 0.0000 -24.3750
v  89.3750 0.0000 -64.3750
v  48.5938 0.0000 -26.0938
v  88.5938 0.0000 -66.0938
v  47.5000 0.0000 -27.5000
v  87.5000 0.0000 -67.5000
v  46.0938 0.0000 -28.5938
v  86.0938 0.0000 -68.5938
v  44.3750 0.0000 -29.3750
v  84.3750 0.0000 -69.3750
v  42.3438 0.0000 -29.8438
v  82.3438 0.0000 -69.8438
# 128 vertices

vn 0.0000 -1.0000 -0.0000
# 1 vertex normals

vt 0.0000 0.0671 0.0000
vt 0.9643 0.0000 0.0000
vt 0.0439 1.0000 0.0000
vt 1.0000 0.9531 0.0000
vt 0.0000 0.8333 0.0000
vt 0.1000 0.0000 0.0000
vt 1.0000 0.1667 0.0000
vt 0.9000 1.0000 0.0000
vt 1.0000 0.9226 0.0000
vt 1.0000 1.0000 0.0000
vt 1.0000 0.6514 0.0000
vt 0.0000 1.0000 0.0000
vt 1.0000 0.6262 0.0000
vt 1.0000 1.0000 0.0000
vt 1.0000 0.3844 0.0000
vt 0.0000 1.0000 0.0000
vt 1.0000 0.3590 0.0000
vt 1.0000 1.0000 0.0000
vt 1.0000 0.0945 0.0000
vt 0.0000 1.0000 0.0000
vt 0.0000 1.0000 0.0000
vt 0.7567 0.0000 0.0000
vt 0.0000 1.0000 0.0000
vt 0.5426 0.0000 0.0000
vt 0.5267 0.0000 0.0000
vt 1.0000 1.0000 0.0000
vt 0.3320 0.0000 0.0000
vt 0.0000 1.0000 0.0000
vt 0.3147 0.0000 0.0000
vt 1.0000 1.0000 0.0000
vt 0.1135 0.0000 0.0000
vt 0.0000 1.0000 0.0000
vt 0.7370 0.0000 0.0000
vt 1.0000 1.0000 0.0000
vt 0.9608 0.0000 0.0000
vt 1.0000 1.0000 0.0000
vt 0.0000 0.5396 0.0000
vt 0.0000 0.9415 0.0000
vt 0.1097 1.0000 0.0000
vt 0.0000 0.0000 0.0000
vt 0.3179 1.0000 0.0000
vt 1.0000 0.0000 0.0000
vt 0.3370 1.0000 0.0000
vt 0.0000 0.0000 0.0000
vt 0.5309 1.0000 0.0000
vt 1.0000 0.0000 0.0000
vt 0.5457 1.0000 0.0000
vt 0.0000 0.0000 0.0000
vt 0.7405 1.0000 0.0000
vt 1.0000 0.0000 0.0000
vt 0.7571 1.0000 0.0000
vt 0.0000 0.0000 0.0000
vt 0.9562 1.0000 0.0000
vt 1.0000 0.0000 0.0000
vt 0.0000 0.0000 0.0000
vt 1.0000 0.0000 0.0000
vt 0.0000 1.0000 0.0000
vt 1.0000 1.0000 0.0000
vt 0.0000 1.0000 0.0000
vt 1.0000 1.0000 0.0000
vt 0.0000 1.0000 0.0000
vt 1.0000 1.0000 0.0000
vt 0.0000 1.0000 0.0000
vt 1.0000 1.0000 0.0000
vt 0.0000 1.0000 0.0000
vt 1.0000 1.0000 0.0000
vt 0.0000 0.0000 0.0000
vt 1.0000 0.0000 0.0000
vt 0.0000 0.0000 0.0000
vt 1.0000 0.0000 0.0000
vt 0.0000 0.0000 0.0000
vt 1.0000 0.0000 0.0000
vt 0.0000 0.0000 0.0000
vt 1.0000 0.0000 0.0000
vt 0.0000 0.0000 0.0000
vt 1.0000 0.0000 0.0000
vt 0.0000 0.0000 0.0000
vt 1.0000 0.0000 0.0000
vt 0.0454 0.0000 0.0000
vt 1.0000 0.0540 0.0000
vt 0.0000 0.9600 0.0000
vt 0.9602 1.0000 0.0000
vt 0.1000 1.0000 0.0000
vt 0.0000 0.1667 0.0000
vt 0.9000 0.0000 0.0000
vt 1.0000 0.8333 0.0000
vt 0.0057 0.0587 0.0000
vt 0.0113 0.0504 0.0000
vt 0.0170 0.0420 0.0000
vt 0.0227 0.0336 0.0000
vt 0.0284 0.0252 0.0000
vt 0.0340 0.0168 0.0000
vt 0.0397 0.0084 0.0000
vt 0.9688 0.0067 0.0000
vt 0.9733 0.0135 0.0000
vt 0.9777 0.0202 0.0000
vt 0.9822 0.0270 0.0000
vt 0.9866 0.0337 0.0000
vt 0.9911 0.0405 0.0000
vt 0.9955 0.0472 0.0000
vt 0.0384 0.9950 0.0000
vt 0.0329 0.9900 0.0000
vt 0.0274 0.9850 0.0000
vt 0.0219 0.9800 0.0000
vt 0.0165 0.9750 0.0000
vt 0.0110 0.9700 0.0000
vt 0.0055 0.9650 0.0000
vt 0.9950 0.9589 0.0000
vt 0.9900 0.9648 0.0000
vt 0.9851 0.9707 0.0000
vt 0.9801 0.9765 0.0000
vt 0.9751 0.9824 0.0000
vt 0.9701 0.9883 0.0000
vt 0.9652 0.9941 0.0000
vt 0.0125 0.8542 0.0000
vt 0.0250 0.8750 0.0000
vt 0.0375 0.8958 0.0000
vt 0.0500 0.9167 0.0000
vt 0.0625 0.9375 0.0000
vt 0.0750 0.9583 0.0000
vt 0.0875 0.9792 0.0000
vt 0.0875 0.0208 0.0000
vt 0.0750 0.0417 0.0000
vt 0.0625 0.0625 0.0000
vt 0.0500 0.0833 0.0000
vt 0.0375 0.1042 0.0000
vt 0.0250 0.1250 0.0000
vt 0.0125 0.1458 0.0000
vt 0.9875 0.1458 0.0000
vt 0.9750 0.1250 0.0000
vt 0.9625 0.1042 0.0000
vt 0.9500 0.0833 0.0000
vt 0.9375 0.0625 0.0000
vt 0.9250 0.0417 0.0000
vt 0.9125 0.0208 0.0000
vt 0.9125 0.9792 0.0000
vt 0.9250 0.9583 0.0000
vt 0.9375 0.9375 0.0000
vt 0.9500 0.9167 0.0000
vt 0.9625 0.8958 0.0000
vt 0.9750 0.8750 0.0000
vt 0.9875 0.8542 0.0000
vt 0.0000 0.3707 0.0000
vt 0.0000 0.2361 0.0000
vt 0.0000 0.5000 0.0000
vt 1.0000 0.5000 0.0000
vt 0.0000 0.8075 0.0000
vt 0.0000 0.6736 0.0000
vt 0.3333 0.5000 0.0000
vt 0.6667 0.5000 0.0000
# 150 texture coords

g Object002
usemtl default
s off
f 1/81/1 2/5/1 3/84/1 4/38/1 
f 3/84/1 5/1/1 6/144/1 7/143/1 
f 3/84/1 7/143/1 8/37/1 9/148/1 
f 3/84/1 9/148/1 10/147/1 4/38/1 
f 11/79/1 12/6/1 13/85/1 14/31/1 
f 13/85/1 15/2/1 16/35/1 17/22/1 
f 13/85/1 17/22/1 18/33/1 19/24/1 
f 13/85/1 19/24/1 20/25/1 21/27/1 
f 13/85/1 21/27/1 22/29/1 14/31/1 
f 23/80/1 24/7/1 25/86/1 26/19/1 
f 25/86/1 27/4/1 28/9/1 29/11/1 
f 25/86/1 29/11/1 30/13/1 31/15/1 
f 25/86/1 31/15/1 32/17/1 26/19/1 
f 33/82/1 34/8/1 35/83/1 36/53/1 
f 35/83/1 37/3/1 38/39/1 39/41/1 
f 35/83/1 39/41/1 40/43/1 41/45/1 
f 35/83/1 41/45/1 42/47/1 43/49/1 
f 35/83/1 43/49/1 44/51/1 36/53/1 
s 1
f 45/55/1 29/12/1 28/10/1 46/56/1 
f 44/52/1 47/57/1 48/58/1 36/54/1 
f 42/48/1 49/59/1 50/60/1 43/50/1 
f 40/44/1 51/61/1 52/62/1 41/46/1 
f 38/40/1 53/63/1 54/64/1 39/42/1 
f 55/66/1 56/146/1 57/150/1 58/149/1 
f 55/66/1 58/149/1 59/145/1 60/65/1 
f 61/67/1 14/32/1 22/30/1 62/68/1 
f 63/69/1 21/28/1 20/26/1 64/70/1 
f 65/71/1 19/23/1 18/34/1 66/72/1 
f 67/73/1 17/21/1 16/36/1 68/74/1 
f 69/75/1 26/20/1 32/18/1 70/76/1 
f 71/77/1 31/16/1 30/14/1 72/78/1 
s off
f 73/121/1 74/101/1 37/3/1 35/83/1 
f 75/128/1 76/87/1 5/1/1 3/84/1 
f 77/135/1 78/94/1 15/2/1 13/85/1 
f 79/142/1 80/108/1 27/4/1 25/86/1 
f 81/120/1 82/102/1 74/101/1 73/121/1 
f 83/119/1 84/103/1 82/102/1 81/120/1 
f 85/118/1 86/104/1 84/103/1 83/119/1 
f 87/117/1 88/105/1 86/104/1 85/118/1 
f 89/116/1 90/106/1 88/105/1 87/117/1 
f 91/115/1 92/107/1 90/106/1 89/116/1 
f 2/5/1 1/81/1 92/107/1 91/115/1 
f 93/127/1 94/88/1 76/87/1 75/128/1 
f 95/126/1 96/89/1 94/88/1 93/127/1 
f 97/125/1 98/90/1 96/89/1 95/126/1 
f 99/124/1 100/91/1 98/90/1 97/125/1 
f 101/123/1 102/92/1 100/91/1 99/124/1 
f 103/122/1 104/93/1 102/92/1 101/123/1 
f 12/6/1 11/79/1 104/93/1 103/122/1 
f 105/134/1 106/95/1 78/94/1 77/135/1 
f 107/133/1 108/96/1 106/95/1 105/134/1 
f 109/132/1 110/97/1 108/96/1 107/133/1 
f 111/131/1 112/98/1 110/97/1 109/132/1 
f 113/130/1 114/99/1 112/98/1 111/131/1 
f 115/129/1 116/100/1 114/99/1 113/130/1 
f 24/7/1 23/80/1 116/100/1 115/129/1 
f 117/141/1 118/109/1 80/108/1 79/142/1 
f 119/140/1 120/110/1 118/109/1 117/141/1 
f 121/139/1 122/111/1 120/110/1 119/140/1 
f 123/138/1 124/112/1 122/111/1 121/139/1 
f 125/137/1 126/113/1 124/112/1 123/138/1 
f 127/136/1 128/114/1 126/113/1 125/137/1 
f 34/8/1 33/82/1 128/114/1 127/136/1 
# 63 polygons

